<?xml version="1.0" standalone="no"?>
<!DOCTYPE svg PUBLIC "-//W3C//DTD SVG 20010904//EN"
 "http://www.w3.org/TR/2001/REC-SVG-20010904/DTD/svg10.dtd">
<svg version="1.0" xmlns="http://www.w3.org/2000/svg"
 width="1266.000000pt" height="1280.000000pt" viewBox="0 0 1266.000000 1280.000000"
 preserveAspectRatio="xMidYMid meet">
<metadata>
Created by potrace 1.15, written by Peter Selinger 2001-2017
</metadata>
<g transform="translate(0.000000,1280.000000) scale(0.100000,-0.100000)"
fill="#000000" stroke="none">
<path d="M8829 12786 c-265 -56 -490 -265 -586 -545 -48 -141 -61 -276 -39
-405 9 -54 19 -104 24 -111 4 -7 7 48 8 123 2 448 197 753 549 864 88 28 244
35 325 14 119 -30 206 -81 305 -181 104 -104 161 -197 212 -344 l34 -96 -6 65
c-13 132 -57 248 -137 355 -82 110 -225 210 -358 250 -76 22 -248 28 -331 11z"/>
<path d="M7925 11936 c-151 -48 -265 -150 -354 -317 -100 -188 -158 -474 -149
-728 4 -118 18 -164 47 -159 11 2 14 48 15 238 3 251 11 318 62 474 79 245
228 418 418 487 59 21 26 26 -39 5z"/>
<path d="M9861 11846 c2 -3 50 -27 106 -55 310 -156 525 -417 580 -705 17 -88
13 -269 -7 -339 -12 -41 -7 -72 14 -80 31 -12 46 18 62 123 67 441 -186 833
-660 1024 -85 35 -104 41 -95 32z"/>
<path d="M5518 11039 c-518 -42 -1089 -464 -1366 -1013 -27 -52 -62 -134 -78
-180 l-28 -85 -88 -36 c-274 -114 -512 -327 -633 -565 -61 -121 -101 -258
-119 -410 -7 -59 1 -41 59 140 125 385 302 593 648 761 59 29 109 50 112 47 3
-2 -4 -45 -15 -94 -25 -114 -50 -308 -50 -384 0 -67 13 -110 33 -110 11 0 15
26 20 108 24 416 155 784 384 1076 203 259 477 467 748 569 163 61 225 72 430
71 177 0 196 -2 280 -27 189 -57 372 -167 532 -320 l76 -73 -17 -56 c-9 -31
-19 -85 -22 -120 l-5 -63 34 96 c70 195 160 323 300 422 162 116 324 170 509
171 95 1 97 1 60 14 -52 19 -217 27 -281 13 -83 -18 -197 -67 -274 -119 -90
-60 -214 -183 -247 -245 -14 -26 -27 -47 -30 -47 -3 1 -21 21 -40 46 -46 60
-169 175 -245 229 -136 97 -323 169 -472 180 -43 3 -87 7 -98 9 -11 1 -63 -1
-117 -5z"/>
<path d="M10360 10746 c0 -3 13 -12 28 -20 49 -25 179 -154 222 -219 88 -134
113 -314 70 -495 -24 -99 -107 -279 -183 -394 -54 -84 -160 -222 -239 -312
-40 -46 -41 -48 -13 -33 81 42 205 173 297 311 146 222 227 473 215 671 -10
150 -54 244 -166 347 -70 65 -231 165 -231 144z"/>
<path d="M10115 9315 c83 -217 100 -302 100 -495 0 -194 -11 -246 -82 -390
-39 -80 -60 -109 -137 -185 -76 -76 -107 -99 -186 -138 -52 -26 -115 -52 -140
-58 l-45 -12 -86 65 c-91 69 -132 87 -155 67 -12 -9 -3 -18 48 -48 35 -20 99
-72 143 -116 92 -91 150 -191 184 -315 24 -87 43 -261 40 -373 -2 -74 10 -112
28 -93 5 4 8 80 8 169 -1 133 -5 178 -23 250 -26 106 -72 224 -113 290 -20 33
-25 49 -17 52 177 61 321 162 422 294 128 169 185 354 173 564 -8 129 -35 234
-91 353 -42 88 -90 169 -71 119z"/>
<path d="M2911 8810 c-169 -77 -371 -306 -486 -554 -84 -179 -110 -301 -110
-521 0 -146 3 -182 23 -255 28 -102 87 -219 142 -280 48 -53 49 -55 -17 80
-80 164 -98 248 -98 465 0 188 9 249 57 388 30 88 103 231 157 307 56 80 245
276 320 332 90 68 92 74 12 38z"/>
<path d="M6048 8575 c-158 -124 -262 -343 -301 -634 l-12 -93 -83 -29 c-46
-15 -120 -45 -163 -65 -71 -33 -78 -39 -65 -53 14 -13 21 -12 66 13 45 24 211
86 232 86 4 0 8 -35 9 -77 0 -43 4 -118 8 -168 5 -49 7 -92 5 -93 -1 -2 -101
68 -221 155 -522 381 -784 542 -998 614 -98 34 -274 34 -390 1 -264 -76 -520
-269 -614 -464 -23 -47 -42 -101 -44 -121 -2 -34 51 -96 1247 -1461 687 -784
1254 -1433 1262 -1443 7 -10 14 -14 14 -9 1 41 -902 1104 -2214 2605 l-239
274 12 45 c66 249 367 484 681 533 181 28 354 -29 670 -219 134 -81 477 -310
705 -470 136 -96 140 -100 148 -143 31 -179 117 -464 148 -494 8 -7 10 -4 6
10 -39 137 -82 367 -102 540 -16 143 -23 390 -11 403 6 6 477 121 483 117 1 0
-6 -28 -17 -61 -59 -191 -43 -470 35 -624 42 -82 116 -140 180 -140 14 0 25
-3 25 -7 -1 -10 -97 -79 -177 -127 -145 -86 -358 -172 -543 -216 -75 -19 -124
-24 -237 -24 -161 -1 -183 -19 -29 -24 189 -7 487 83 817 249 273 136 350 204
379 336 8 34 23 61 54 93 109 115 176 226 176 292 0 51 -37 88 -118 119 -60
22 -185 48 -239 49 -21 0 -45 12 -73 35 -52 44 -60 44 -25 3 l28 -33 -39 -6
c-22 -4 -74 -9 -116 -13 -77 -7 -78 -6 -78 16 0 13 4 37 9 55 6 21 6 33 -1 35
-13 5 -282 -35 -407 -61 l-93 -18 7 66 c26 257 112 475 247 625 33 36 58 66
56 66 -2 0 -29 -20 -60 -45z m711 -780 c119 -29 171 -76 155 -139 -12 -51 -86
-150 -197 -265 -62 -64 -130 -136 -152 -160 l-40 -44 63 47 c43 33 62 42 62
31 0 -28 -63 -85 -100 -91 -115 -19 -205 72 -245 246 -19 84 -32 307 -21 365
l7 38 202 -6 c134 -4 224 -11 266 -22z"/>
<path d="M6935 7990 c25 -99 66 -323 76 -415 14 -132 7 -361 -15 -461 -32
-148 -107 -314 -183 -402 l-28 -33 -193 152 c-141 110 -197 148 -205 140 -6
-6 -9 -12 -6 -14 2 -2 83 -66 179 -142 228 -179 209 -159 179 -191 -13 -14
-53 -49 -89 -77 -88 -69 -93 -75 -35 -42 28 15 78 50 113 77 l62 50 237 -199
237 -198 22 -111 c12 -62 33 -153 48 -204 25 -89 85 -244 91 -238 2 2 -8 50
-21 108 -63 277 -97 545 -92 734 l3 120 95 23 c237 57 385 91 387 89 1 -1 -7
-31 -19 -66 -30 -94 -38 -356 -13 -467 22 -99 53 -168 96 -218 36 -40 98 -74
138 -75 21 0 22 -2 10 -17 -26 -31 -219 -150 -314 -193 -52 -24 -93 -45 -91
-47 2 -2 53 18 113 45 l109 49 56 -46 c30 -25 117 -98 193 -161 76 -63 143
-118 149 -123 12 -8 -29 -47 -109 -102 -27 -19 -44 -35 -38 -35 6 0 49 25 94
55 45 30 83 55 85 55 2 0 24 -14 49 -31 117 -79 220 -90 288 -31 17 15 13 17
-59 29 -70 12 -215 74 -214 92 1 3 23 35 50 71 139 182 203 394 202 675 0 147
-14 261 -47 388 -20 78 -77 239 -82 233 -2 -2 5 -39 16 -82 65 -255 89 -579
57 -764 -29 -169 -78 -297 -157 -410 -74 -106 -43 -113 -264 55 -108 82 -198
152 -200 156 -3 3 28 25 68 49 119 70 215 147 236 189 11 21 25 60 32 87 8 34
25 63 54 94 112 119 175 224 175 294 0 78 -106 136 -294 159 -87 11 -102 16
-137 45 -39 33 -56 31 -19 -3 11 -10 20 -21 20 -26 0 -4 -39 -10 -87 -14 -158
-12 -148 -23 22 -24 313 -2 465 -47 465 -138 0 -50 -71 -153 -200 -287 -197
-208 -206 -219 -112 -147 51 40 58 20 12 -33 -76 -86 -223 -36 -280 95 -41 96
-53 182 -53 369 0 96 4 194 10 217 8 30 8 43 -1 46 -13 5 -127 -11 -339 -49
-82 -14 -151 -23 -154 -21 -9 10 27 225 52 312 45 155 109 272 207 381 52 58
52 58 13 30 -104 -75 -179 -172 -235 -304 -46 -108 -67 -186 -88 -330 l-17
-113 -86 -29 c-47 -16 -114 -42 -149 -59 l-63 -31 -63 51 c-35 28 -64 54 -64
58 0 3 18 31 40 60 135 179 200 400 201 672 0 186 -22 318 -81 502 -29 88 -60
155 -45 97z m313 -1502 c1 -73 5 -146 8 -162 7 -35 16 -40 -154 99 l-123 99
38 20 c45 23 192 76 213 76 13 0 16 -22 18 -132z"/>
<path d="M9590 7258 c113 -50 175 -85 233 -133 158 -131 264 -341 300 -594 15
-111 37 -136 37 -43 0 85 -26 224 -57 301 -84 213 -232 368 -428 448 -72 29
-146 47 -85 21z"/>
<path d="M4291 7142 c14 -39 574 -718 848 -1027 347 -391 1109 -1178 1174
-1211 31 -17 62 -6 72 25 9 29 -2 46 -64 93 -110 86 -349 319 -682 664 -527
548 -1093 1159 -1294 1398 -32 38 -56 65 -54 58z"/>
<path d="M2468 6856 c-167 -59 -322 -189 -411 -346 -63 -111 -91 -280 -68
-401 32 -160 77 -249 127 -249 32 0 31 12 -10 133 -95 277 -61 478 108 656 72
75 150 130 266 188 95 47 90 55 -12 19z"/>
<path d="M9960 6400 c-11 -7 5 -10 51 -10 144 0 350 -74 545 -196 25 -15 24
-12 -11 24 -50 54 -231 145 -339 172 -84 21 -220 27 -246 10z"/>
<path d="M2316 6097 c-113 -117 -206 -409 -223 -699 -5 -88 -4 -98 12 -104 32
-13 45 22 45 117 0 154 29 320 79 458 28 77 102 214 121 226 5 3 15 15 20 26
19 34 -11 22 -54 -24z"/>
<path d="M10980 5994 c-14 -2 -59 -9 -100 -16 -70 -10 -1963 -499 -2075 -535
-54 -17 -149 -62 -143 -68 9 -9 273 45 557 115 213 52 789 208 1296 350 278
78 370 98 517 111 172 15 307 2 448 -43 93 -30 230 -102 230 -121 0 -3 -25 -9
-55 -12 -30 -4 -55 -11 -55 -15 0 -7 108 -159 130 -183 4 -4 39 1 79 12 l72
20 11 -25 c11 -23 14 -24 117 -24 310 0 513 -71 584 -204 17 -32 22 -58 22
-121 0 -71 -4 -88 -37 -157 -137 -288 -417 -520 -978 -810 -228 -117 -399
-185 -830 -328 -686 -229 -1060 -331 -1935 -531 -49 -11 -117 -26 -150 -34
-117 -28 -501 -107 -660 -136 -33 -6 -80 -14 -105 -19 -25 -5 -79 -13 -120
-20 -41 -6 -102 -15 -135 -20 -132 -20 -319 -42 -520 -61 -163 -15 -715 -15
-835 0 -228 30 -275 39 -603 125 -264 69 -777 103 -1136 76 -74 -6 -197 -12
-273 -13 -76 -1 -138 -5 -138 -8 0 -3 -51 -11 -113 -18 -108 -11 -152 -17
-337 -41 -133 -17 -317 -44 -410 -60 -30 -5 -72 -12 -93 -15 -39 -6 -58 -28
-39 -47 8 -8 27 -8 69 0 32 6 117 21 188 32 281 44 362 57 465 70 47 7 112 16
146 21 105 16 128 12 166 -23 19 -18 100 -71 179 -118 279 -164 426 -272 514
-380 137 -166 132 -308 -17 -445 l-58 -54 -143 50 c-78 28 -216 77 -307 109
-158 56 -282 100 -590 210 -77 28 -203 73 -280 100 -77 27 -204 73 -283 101
-78 28 -153 55 -167 59 -14 4 -83 29 -155 55 l-130 46 -151 -1 c-124 -1 -153
2 -164 15 -10 13 -7 20 24 48 l36 33 -168 74 c-747 329 -1147 616 -1313 942
-55 108 -34 251 49 340 55 59 66 64 170 77 182 23 555 -52 887 -179 61 -23
133 -50 160 -60 28 -10 217 -84 420 -165 204 -81 404 -160 446 -177 78 -30
174 -46 205 -34 15 6 15 8 -2 28 -11 11 -39 29 -64 40 -78 34 -425 175 -726
295 l-291 116 4 51 c3 28 18 152 34 276 16 124 33 273 37 331 8 96 12 112 47
175 135 245 293 363 416 311 83 -34 116 -76 311 -397 165 -272 246 -396 332
-509 157 -209 328 -349 448 -367 51 -8 58 -16 -93 114 -243 210 -468 497 -753
959 -158 257 -258 309 -429 225 -78 -39 -152 -111 -222 -217 -86 -130 -105
-175 -105 -247 0 -35 -9 -182 -20 -328 -11 -146 -20 -289 -20 -317 0 -29 -3
-53 -6 -53 -4 0 -63 18 -133 41 -394 126 -696 172 -881 135 -191 -39 -279
-135 -296 -321 -6 -66 -4 -73 26 -130 19 -33 50 -85 71 -117 188 -278 573
-546 1169 -813 58 -26 136 -61 173 -78 l68 -30 -26 -27 c-29 -30 -32 -52 -8
-71 12 -11 54 -14 167 -15 l151 0 150 -58 c623 -242 1874 -676 1947 -676 25 0
135 117 163 174 35 71 41 129 21 206 -49 190 -253 393 -630 627 l-110 68 110
12 c137 16 678 18 799 4 223 -27 351 -56 527 -116 208 -72 356 -102 621 -126
222 -20 674 2 1032 51 44 6 112 15 150 20 39 5 109 16 157 23 l87 13 1068
-428 c587 -236 1095 -437 1127 -448 106 -36 300 -27 521 22 322 71 615 235
615 344 0 12 -18 58 -40 101 l-40 80 73 74 c238 244 300 654 164 1082 -14 42
-22 79 -18 81 4 3 40 18 81 34 70 28 223 95 329 145 68 32 299 159 377 208
177 110 374 288 481 433 124 168 178 348 139 459 -61 169 -242 248 -626 273
l-86 5 -28 44 c-15 24 -63 78 -106 119 -62 57 -103 85 -182 124 -150 74 -246
95 -448 98 -91 1 -176 0 -190 -2z m801 -261 c20 -21 48 -55 63 -75 l27 -37
-52 -15 c-70 -21 -78 -20 -103 11 -29 37 -96 133 -96 138 0 4 45 10 100 13 18
1 37 -9 61 -35z m-521 -1886 c73 -417 6 -737 -203 -959 l-53 -58 -37 48 c-20
26 -88 98 -151 161 -88 88 -118 112 -132 107 -15 -6 1 -25 88 -109 109 -105
198 -206 198 -225 0 -6 -16 -20 -36 -32 -19 -12 -33 -25 -30 -27 3 -3 19 5 36
17 17 12 37 20 44 17 17 -7 56 -90 63 -135 5 -31 1 -38 -51 -87 -111 -105
-362 -205 -664 -265 -91 -17 -275 -13 -329 9 -44 17 -303 121 -763 308 -102
42 -360 146 -575 233 -648 261 -777 314 -768 316 4 1 42 7 83 14 41 6 95 15
120 20 25 5 72 13 105 19 623 113 1176 241 1778 412 98 28 180 49 182 47 2 -2
7 -28 11 -58 l7 -54 -49 36 c-43 31 -53 34 -82 26 l-33 -9 23 -18 c13 -9 51
-37 86 -61 42 -29 64 -52 68 -69 37 -168 103 -373 125 -386 5 -4 5 4 -1 20
-14 37 -56 253 -73 380 -25 181 -27 216 -14 220 78 26 363 115 368 115 3 0 3
-27 1 -59 -5 -75 11 -196 38 -284 28 -90 94 -163 158 -173 24 -4 41 -11 39
-18 -6 -18 -125 -94 -237 -151 -58 -30 -102 -54 -99 -54 19 -2 287 128 358
173 101 64 170 151 171 216 1 16 23 49 64 93 109 119 156 221 127 276 -20 36
-128 82 -226 96 l-50 7 40 15 c22 8 83 32 135 52 l95 38 12 -39 c7 -21 22 -94
33 -161z m-205 51 c28 -6 67 -19 87 -29 105 -53 70 -136 -156 -367 -128 -132
-140 -150 -64 -88 45 35 54 31 28 -12 -53 -86 -185 -61 -243 46 -35 64 -55
153 -63 282 l-7 105 119 41 c127 44 177 48 299 22z"/>
<path d="M10425 3055 c-25 -12 -26 -14 -5 -9 28 7 60 23 45 23 -5 0 -23 -6
-40 -14z"/>
<path d="M10320 3020 c-13 -9 -13 -10 0 -10 8 0 22 5 30 10 13 9 13 10 0 10
-8 0 -22 -5 -30 -10z"/>
<path d="M10255 3000 c-13 -5 -14 -9 -5 -9 8 0 24 4 35 9 13 5 14 9 5 9 -8 0
-24 -4 -35 -9z"/>
<path d="M10160 2980 c-14 -4 -83 -9 -155 -9 -88 -1 -125 -4 -115 -11 24 -15
192 -12 267 6 37 8 70 17 72 20 7 7 -42 3 -69 -6z"/>
<path d="M11230 5884 c0 -3 19 -37 41 -75 30 -50 47 -69 62 -69 34 0 197 33
197 40 0 4 -34 30 -77 58 -74 51 -78 52 -150 52 -40 0 -73 -3 -73 -6z m201
-45 c32 -23 59 -45 59 -49 0 -8 -92 -30 -129 -30 -16 0 -36 10 -48 23 -19 20
-53 79 -53 92 0 3 25 5 56 5 49 0 63 -5 115 -41z"/>
<path d="M11085 5862 c-44 -8 -81 -16 -83 -17 -2 -2 7 -37 20 -80 23 -76 23
-76 53 -70 17 3 68 13 115 21 47 9 86 17 88 18 1 2 -14 35 -35 74 -43 80 -34
78 -158 54z m136 -49 c13 -32 25 -60 27 -64 4 -9 -164 -40 -181 -33 -13 5 -54
111 -46 118 4 3 142 32 165 35 6 0 21 -25 35 -56z"/>
<path d="M10871 5828 l-63 -10 6 -37 c3 -20 6 -58 6 -84 l0 -48 52 7 c29 4 73
12 98 18 l46 11 -23 78 c-18 58 -28 77 -41 76 -9 -1 -46 -6 -81 -11z m106 -72
l21 -65 -50 -10 c-58 -13 -105 -14 -112 -3 -2 4 -6 34 -7 67 l-3 60 40 6 c90
14 88 15 111 -55z"/>
<path d="M11430 5734 c-47 -8 -91 -16 -98 -19 -9 -3 0 -23 30 -62 24 -32 59
-82 77 -111 23 -36 38 -51 50 -48 9 3 61 17 116 32 55 14 102 28 103 29 9 8
-161 195 -176 194 -10 -1 -55 -8 -102 -15z m161 -56 c81 -95 91 -111 75 -120
-27 -15 -189 -49 -195 -41 -27 36 -122 186 -119 188 6 5 123 22 159 24 32 1
41 -5 80 -51z"/>
<path d="M11220 5699 c-99 -18 -152 -33 -157 -45 -4 -10 42 -232 50 -240 1 -2
50 8 107 20 58 13 131 29 162 36 l57 11 -70 107 c-38 58 -69 110 -69 114 0 9
-19 9 -80 -3z m111 -82 c51 -79 72 -117 67 -121 -4 -4 -236 -57 -258 -59 -8
-1 -20 10 -27 24 -15 32 -38 177 -29 186 10 10 138 42 171 42 26 1 35 -8 76
-72z"/>
<path d="M7465 5629 c-167 -57 -260 -74 -412 -74 -88 0 -129 -3 -122 -10 18
-18 181 -18 270 0 100 20 286 75 349 104 67 30 38 23 -85 -20z"/>
<path d="M10896 5634 c-38 -8 -71 -16 -73 -18 -3 -3 2 -46 11 -97 9 -51 16
-107 16 -125 0 -32 1 -33 38 -27 47 7 54 13 14 13 -34 0 -33 -3 -56 138 -9 60
-10 85 -2 88 6 2 46 10 88 17 l77 14 10 -31 c11 -32 31 -149 31 -177 0 -11
-17 -20 -55 -29 -30 -7 -53 -15 -51 -17 8 -9 126 20 126 30 0 6 -10 62 -22
124 l-22 113 -31 -1 c-16 -1 -61 -8 -99 -15z"/>
<path d="M11799 5525 c-171 -112 -184 -323 -36 -623 27 -56 54 -105 59 -108 5
-3 -7 26 -26 65 -56 110 -42 97 34 -34 38 -66 79 -131 91 -145 l21 -25 -20 35
c-11 19 -50 87 -87 150 -36 63 -71 114 -78 112 -7 -2 -9 -1 -5 3 3 4 -3 27
-14 53 -12 25 -26 84 -33 131 -23 154 10 277 99 365 50 51 49 57 -5 21z"/>
<path d="M2099 5270 c-68 -20 -153 -77 -217 -144 -103 -109 -193 -301 -196
-420 -1 -45 1 -51 19 -51 17 0 21 9 27 67 8 80 20 122 61 202 62 125 176 246
298 319 61 36 64 44 8 27z"/>
<path d="M8440 5149 c-75 -34 -712 -246 -915 -304 -424 -121 -817 -192 -1085
-196 -47 -1 -98 -4 -115 -8 -31 -6 -46 -35 -23 -44 7 -2 92 -1 189 4 561 27
1072 150 1796 432 183 72 225 94 221 114 -5 24 -18 25 -68 2z"/>
<path d="M1015 4938 c-380 -43 -712 -246 -863 -528 -72 -133 -87 -202 -86
-380 1 -137 4 -165 27 -241 33 -108 72 -199 87 -199 19 0 24 32 11 74 -69 229
-83 355 -57 504 31 176 104 317 228 439 189 187 419 276 746 290 121 5 155 9
159 21 3 8 0 18 -8 23 -17 11 -137 9 -244 -3z"/>
<path d="M5995 4689 c-387 -85 -536 -120 -790 -184 -339 -86 -659 -176 -870
-244 -82 -27 -231 -75 -330 -106 -180 -58 -213 -73 -201 -94 10 -16 39 -14
115 8 36 10 104 29 151 41 105 28 215 57 300 80 36 10 103 28 150 40 47 12
105 28 130 36 25 8 367 101 760 206 393 105 717 192 719 194 5 5 -30 44 -38
43 -3 0 -46 -10 -96 -20z"/>
<path d="M8895 4054 c-41 -5 -205 -34 -330 -60 -38 -8 -113 -23 -165 -34 -52
-10 -160 -33 -240 -50 -80 -17 -188 -40 -240 -50 -52 -10 -160 -33 -240 -50
-80 -17 -189 -40 -242 -50 -53 -11 -127 -26 -165 -34 -37 -8 -97 -20 -133 -27
-135 -25 -255 -61 -331 -100 -101 -50 -159 -144 -159 -255 0 -124 27 -138 270
-137 101 0 226 8 295 17 66 9 156 21 200 27 99 13 115 24 20 15 -38 -4 -113
-11 -165 -17 -52 -5 -176 -11 -275 -14 -263 -9 -304 7 -305 113 0 43 26 110
58 148 65 77 207 130 427 159 56 7 216 37 350 65 52 11 45 9 802 160 545 109
667 130 742 130 144 0 259 -38 330 -109 66 -66 88 -139 54 -178 -56 -64 -330
-156 -658 -223 -33 -6 -78 -16 -100 -20 -22 -5 -60 -12 -85 -16 -25 -4 -39 -9
-33 -11 15 -5 149 17 353 57 242 49 357 83 463 138 118 61 139 109 93 209 -37
80 -117 131 -271 174 -70 19 -239 31 -320 23z"/>
<path d="M413 3631 c-233 -123 -365 -320 -403 -599 -55 -402 153 -892 454
-1066 51 -30 65 -43 60 -55 -61 -142 -85 -414 -41 -475 10 -13 11 5 9 91 -7
232 77 444 215 543 24 18 42 34 40 37 -10 9 -72 -31 -123 -79 l-52 -49 -40 20
c-70 36 -190 139 -252 216 -77 97 -153 253 -187 380 -23 88 -26 120 -26 260 0
141 3 172 26 260 62 234 196 424 383 542 39 24 7 11 -63 -26z"/>
<path d="M8490 3440 c-20 -6 -21 -8 -5 -8 11 0 31 4 45 8 20 6 21 8 5 8 -11 0
-31 -4 -45 -8z"/>
<path d="M8398 3423 c7 -3 16 -2 19 1 4 3 -2 6 -13 5 -11 0 -14 -3 -6 -6z"/>
<path d="M8358 3413 c7 -3 16 -2 19 1 4 3 -2 6 -13 5 -11 0 -14 -3 -6 -6z"/>
<path d="M7545 3280 c-27 -7 -27 -8 -5 -8 14 0 36 4 50 8 20 6 21 8 5 8 -11 0
-33 -4 -50 -8z"/>
<path d="M7100 2034 c-518 -19 -1147 -90 -1245 -142 -45 -24 -16 -26 137 -8
667 76 1392 84 2763 31 1188 -47 1716 -57 1730 -35 20 32 -14 37 -322 43 -277
6 -787 28 -983 42 -124 9 -769 44 -1005 55 -235 11 -917 20 -1075 14z"/>
<path d="M1470 1619 c-124 -26 -225 -67 -381 -155 -71 -40 -99 -62 -99 -75 0
-32 28 -22 155 51 67 38 151 83 186 99 188 85 375 80 516 -14 l33 -22 -82 -99
c-45 -54 -197 -216 -338 -359 -385 -392 -498 -558 -570 -839 -11 -44 -20 -93
-20 -109 0 -17 -7 -38 -16 -48 -43 -48 29 -68 75 -21 35 33 605 324 830 422
1299 567 2774 865 4766 965 297 15 893 35 1026 35 55 0 71 3 76 16 3 9 0 20
-8 26 -22 15 -689 -3 -1234 -32 -1854 -101 -3297 -398 -4580 -940 -285 -121
-583 -265 -817 -394 l-66 -37 5 43 c19 144 116 368 226 521 86 118 184 229
437 492 117 121 239 253 273 294 68 83 71 74 -38 127 -116 56 -244 75 -355 53z"/>
</g>
</svg>
